<?xml version="1.0" encoding="utf-8"?>
<svg version="1.1" xmlns="http://www.w3.org/2000/svg" xmlns:xlink="http://www.w3.org/1999/xlink" x="0px" y="0px" viewBox="0 0 1000 1000" enable-background="new 0 0 1000 1000" xml:space="preserve">
<g fill="white"><path d="M500,10C229.4,10,10,229.4,10,500c0,270.6,219.4,490,490,490c270.6,0,490-219.4,490-490C990,229.4,770.6,10,500,10z M148.6,705.6l0-0.1c-6.6-0.5-11.8-6.3-11.8-13.4c0-5.5,3.1-10.2,7.6-12.3l0,0c0,0,0.1,0,0.1-0.1c0,0,0.1,0,0.1,0c88.4-35.4,146.5-135.3,165-235.1C341.2,312.5,460,195.9,639.9,191.3c0.1,0,0.2,0,0.3,0c0.1,0,0.1,0,0.2,0c0.1,0,0.2,0,0.3,0c0.1,0,0.2,0,0.2,0c6.8,0.3,12.2,6.2,12.2,13.4c0,5.3-2.9,9.8-7,12c-0.1,0.1-0.3,0.2-0.6,0.4c-71.3,35.2-103.5,102-135,191.5c-15.4,57-43.7,128.8-82.7,191.8C391.4,664.9,287,718,148.6,705.6z M857.1,289.7c-0.1,0.1-0.1,0.1-0.2,0.2c-56.4,42.5-82.9,113.4-108.9,219C716.6,735.4,646,784,417,785.2c-0.1,0-0.1,0-0.2,0c-0.1,0-0.3,0-0.4,0c-0.3,0-0.5,0-0.7-0.1c-6.5-0.6-11.6-6.3-11.6-13.3c0-5.3,2.9-9.8,7.1-12c0,0,0.1,0,0.1-0.1c0.3-0.2,0.6-0.3,0.9-0.4c80.4-35.2,108.8-80.5,129.3-152.8c0.1-0.3,0.2-0.6,0.3-0.9c0.1-0.3,0.2-0.5,0.2-0.8c0,0,0,0,0,0c1.7-5.2,6.4-9,12-9c0.1,0,0.2,0,0.4,0H612c37.5-25.6,36.1-56.9,51.2-130.9c-0.2,0.9-0.4,1.8-0.5,2.6c0.1-0.5,0.1-1,0.1-1.5c0-6.9-4.9-12.5-11.3-13.3l-47.2,0.3c-0.1,0-0.1,0-0.2,0c-7,0-12.7-6-12.7-13.5c0-1.2,0.2-2.4,0.5-3.5c0,0,0-0.1,0-0.1c22.4-80.9,100.6-156.1,257.5-171c0.2,0,0.8-0.1,1-0.1c7,0,12.7,6,12.7,13.5C863.2,283.2,860.7,287.4,857.1,289.7z"/></g>
</svg>
